{"title":"Intermixed.Sluts.Lavender.Rayne.XXXmegathor.mpeg","uid":10628612,"size":310341178,"categoryP":"porn","categoryS":"movies","magnet":"?xt=urn:btih:c66d695f327eb40a86fc77344287400747356fbf&amp;dn=Intermixed.Sluts.Lavender.Rayne.XXXmegathor.mpeg&amp;tr=udp%3A%2F%2Ftracker.openbittorrent.com%3A80&amp;tr=udp%3A%2F%2Fopen.demonii.com%3A1337&amp;tr=udp%3A%2F%2Ftracker.coppersurfer.tk%3A6969&amp;tr=udp%3A%2F%2Fexodus.desync.com%3A6969","seeders":0,"leechers":1,"uploader":"XXXmegathor","files":1,"time":1406278686,"description":"Intermixed.Sluts.Lavender.Rayne.XXXmegathor\n\nSCREENIES &lt;a href=&quot;\nhttp://xxxtrapics.com/image/R6&quot; rel=&quot;nofollow&quot; target=&quot;_NEW&quot;&gt;\nhttp://xxxtrapics.com/image/R6&lt;/a&gt;\n\n\nDuration : 13mn 20s\nOverall bit rate : 3 102 Kbps\nEncoded date : UTC 2011-11-08 14:46:22\nTagged date : UTC 2011-11-08 14:46:22\n\nVideo\nID : 1\nFormat : AVC\nFormat/Info : Advanced Video Codec\nFormat profile : &lt;a class=&quot;__cf_email__&quot; href=&quot;/cdn-cgi/l/email-protection&quot; data-cfemail=&quot;0840616f6048443b263a&quot;&gt;[email&amp;#160;protected]&lt;/a&gt;&lt;script cf-hash='f9e31' type=&quot;text/javascript&quot;&gt;\n/* &lt;![CDATA[ */!function(){try{var t=&quot;currentScript&quot;in document?document.currentScript:function(){for(var t=document.getElementsByTagName(&quot;script&quot;),e=t.length;e--;)if(t[e].getAttribute(&quot;cf-hash&quot;))return t[e]}();if(t&amp;&amp;t.previousSibling){var e,r,n,i,c=t.previousSibling,a=c.getAttribute(&quot;data-cfemail&quot;);if(a){for(e=&quot;&quot;,r=parseInt(a.substr(0,2),16),n=2;a.length-n;n+=2)i=parseInt(a.substr(n,2),16)^r,e+=String.fromCharCode(i);e=document.createTextNode(e),c.parentNode.replaceChild(e,c)}}}catch(u){}}();/* ]]&gt; */&lt;/script&gt;\nFormat settings, CABAC : Yes\nFormat settings, ReFrames : 4 frames\nCodec ID : avc1\nCodec ID/Info : Advanced Video Coding\nDuration : 13mn 20s\nBit rate mode : Variable\nBit rate : 2 989 Kbps\nMaximum bit rate : 8 000 Kbps\nWidth : 720 pixels\nHeight : 540 pixels\nDisplay aspect ratio : 4:3\nFrame rate mode : Constant\nFrame rate : 29.970 fps\nColor space : YUV\nChroma subsampling : 4:2:0\nBit depth : 8 bits\nScan type : Progressive\nBits/(Pixel*Frame) : 0.257\nStream size : 285 MiB (96%)\nEncoded date : UTC 2011-11-08 14:46:22\nTagged date : UTC 2011-11-08 14:46:37\n\nAudio\nID : 2\nFormat : AAC\nFormat/Info : Advanced Audio Codec\nFormat profile : LC\nCodec ID : 40\nDuration : 13mn 20s\nBit rate mode : Variable\nBit rate : 108 Kbps\nMaximum bit rate : 124 Kbps\nChannel(s) : 2 channels\nChannel positions : Front: L R\nSampling rate : 44.1 KHz\nCompression mode : Lossy\nStream size : 10.3 MiB (3%)\nLanguage : English\nEncoded date : UTC 2011-11-08 14:46:37\nTagged date : UTC 2011-11-08 14:46:37\n\n","torrent":{"xt":"urn:btih:c66d695f327eb40a86fc77344287400747356fbf","amp;dn":"Intermixed.Sluts.Lavender.Rayne.XXXmegathor.mpeg","amp;tr":["udp%3A%2F%2Ftracker.openbittorrent.com%3A80","udp%3A%2F%2Fopen.demonii.com%3A1337","udp%3A%2F%2Ftracker.coppersurfer.tk%3A6969","udp%3A%2F%2Fexodus.desync.com%3A6969"],"infoHash":"c66d695f327eb40a86fc77344287400747356fbf","infoHashBuffer":{"type":"Buffer","data":[198,109,105,95,50,126,180,10,134,252,119,52,66,135,64,7,71,53,111,191]},"announce":[],"urlList":[]}}